<?xml version="1.0" standalone="no"?><!DOCTYPE svg PUBLIC "-//W3C//DTD SVG 1.1//EN" "http://www.w3.org/Graphics/SVG/1.1/DTD/svg11.dtd"><svg t="1577182753189" class="icon" viewBox="0 0 1024 1024" version="1.1" xmlns="http://www.w3.org/2000/svg" p-id="2781" width="12" height="12"><path d="M512.35328 130.541568c-210.880512 0-381.847552 170.909696-381.847552 381.790208 0 210.880512 170.96704 381.819904 381.847552 381.819904 210.852864 0 381.792256-170.940416 381.792256-381.819904C894.145536 301.45024 723.206144 130.541568 512.35328 130.541568zM703.307776 554.472448 500.574208 554.472448c-4.288512 0-8.404992-0.856064-12.178432-2.4576-11.206656-4.74624-19.098624-15.865856-19.098624-28.817408L469.297152 320.462848c0-17.29536 14.00832-31.304704 31.277056-31.304704 17.327104 0 31.336448 14.009344 31.336448 31.304704L531.910656 491.860992l171.39712 0c17.298432 0 31.305728 14.009344 31.305728 31.305728C734.613504 540.465152 720.605184 554.472448 703.307776 554.472448z" p-id="2782" fill="#d81e06"></path></svg>