<?xml version="1.0" standalone="no"?><!DOCTYPE svg PUBLIC "-//W3C//DTD SVG 1.1//EN" "http://www.w3.org/Graphics/SVG/1.1/DTD/svg11.dtd"><svg t="1577270190327" class="icon" viewBox="0 0 1024 1024" version="1.1" xmlns="http://www.w3.org/2000/svg" p-id="2038" xmlns:xlink="http://www.w3.org/1999/xlink" width="200" height="200"><defs><style type="text/css"></style></defs><path d="M828.8 828.8c174.912-174.976 174.912-458.688 0-633.6-174.976-174.976-458.688-174.976-633.6 0-174.912 174.912-174.976 458.624 0 633.6C370.176 1003.776 653.888 1003.776 828.8 828.8zM373.824 427.584c-14.848-14.72-14.912-38.784-0.128-53.696 14.72-14.848 38.784-14.976 53.696-0.192L512 458.24l84.416-84.352c14.72-14.848 38.784-14.976 53.696-0.192 14.912 14.784 14.976 38.784 0.256 53.696L565.696 512l84.608 84.544c14.72 14.848 14.656 38.912-0.256 53.696-14.848 14.784-38.912 14.656-53.696-0.128L512 565.696 427.392 650.24c-14.848 14.784-38.912 14.72-53.696-0.192C358.912 635.2 358.976 611.136 373.824 596.352L458.24 512 373.824 427.584z" p-id="2039" fill="#d81e06"></path></svg>